<svg xmlns="http://www.w3.org/2000/svg" viewBox="0 0 40 31.12"><defs><style>.a{fill:#5cdb95;}</style></defs><path class="a" d="M20-14.625a25.6,25.6,0,0,1,10.035,1.944,18.293,18.293,0,0,1,7.292,5.243A11.265,11.265,0,0,1,40-.181a11.179,11.179,0,0,1-2.708,7.257A18.626,18.626,0,0,1,30,12.319a25.342,25.342,0,0,1-10,1.944,25.958,25.958,0,0,1-6.319-.764,28.606,28.606,0,0,1-10.9,2.986A2.781,2.781,0,0,1,1.111,16.1a2.011,2.011,0,0,1-.972-1.285,1.68,1.68,0,0,1,.278-1.736,5.185,5.185,0,0,1,1.25-1.111l.139-.139a10.319,10.319,0,0,0,1.458-1.111A5.754,5.754,0,0,0,4.375,8.847a13.908,13.908,0,0,1-3.229-4.2A10.8,10.8,0,0,1,0-.181,11.179,11.179,0,0,1,2.708-7.437,18.626,18.626,0,0,1,10-12.681,25.342,25.342,0,0,1,20-14.625Zm0,25.556a22.009,22.009,0,0,0,9.1-1.806,14.7,14.7,0,0,0,5.625-4.236A8.214,8.214,0,0,0,36.667-.181,8.214,8.214,0,0,0,34.722-5.25,14.7,14.7,0,0,0,29.1-9.486,22.009,22.009,0,0,0,20-11.292a22.009,22.009,0,0,0-9.1,1.806A14.7,14.7,0,0,0,5.278-5.25,8.214,8.214,0,0,0,3.333-.181,8.094,8.094,0,0,0,4.722,4.264,13.739,13.739,0,0,0,8.125,7.6a7.834,7.834,0,0,1-1.389,3.125,12.471,12.471,0,0,1-2.847,2.986,18.533,18.533,0,0,0,5.278-1.6,41.17,41.17,0,0,0,4.1-2.153A23.01,23.01,0,0,0,20,10.931Z" transform="translate(0 14.625)"/></svg>