<svg xmlns="http://www.w3.org/2000/svg" viewBox="0 0 212 224"><defs><style>.a{fill:rgba(104,92,201,0.21);fill-rule:evenodd;}</style></defs><g transform="translate(-266 -1653)"><g transform="translate(266 1653)"><path class="a" d="M8,16A8,8,0,1,0,0,8,8,8,0,0,0,8,16Zm0-2A6,6,0,1,0,2,8,6,6,0,0,0,8,14ZM41.414,8l5.95-5.95L45.95.636,40,6.586,34.05.636,32.636,2.05,38.586,8l-5.95,5.95,1.414,1.414L40,9.414l5.95,5.95,1.414-1.414ZM40,48a8,8,0,1,0-8-8A8,8,0,0,0,40,48Zm0-2a6,6,0,1,0-6-6A6,6,0,0,0,40,46ZM9.414,40l5.95-5.95L13.95,32.636,8,38.586l-5.95-5.95L.636,34.05,6.586,40,.636,45.95,2.05,47.364,8,41.414l5.95,5.95,1.414-1.414Z"/></g><g transform="translate(348 1653)"><path class="a" d="M8,16A8,8,0,1,0,0,8,8,8,0,0,0,8,16Zm0-2A6,6,0,1,0,2,8,6,6,0,0,0,8,14ZM41.414,8l5.95-5.95L45.95.636,40,6.586,34.05.636,32.636,2.05,38.586,8l-5.95,5.95,1.414,1.414L40,9.414l5.95,5.95,1.414-1.414ZM40,48a8,8,0,1,0-8-8A8,8,0,0,0,40,48Zm0-2a6,6,0,1,0-6-6A6,6,0,0,0,40,46ZM9.414,40l5.95-5.95L13.95,32.636,8,38.586l-5.95-5.95L.636,34.05,6.586,40,.636,45.95,2.05,47.364,8,41.414l5.95,5.95,1.414-1.414Z"/></g><g transform="translate(430 1653)"><path class="a" d="M8,16A8,8,0,1,0,0,8,8,8,0,0,0,8,16Zm0-2A6,6,0,1,0,2,8,6,6,0,0,0,8,14ZM41.414,8l5.95-5.95L45.95.636,40,6.586,34.05.636,32.636,2.05,38.586,8l-5.95,5.95,1.414,1.414L40,9.414l5.95,5.95,1.414-1.414ZM40,48a8,8,0,1,0-8-8A8,8,0,0,0,40,48Zm0-2a6,6,0,1,0-6-6A6,6,0,0,0,40,46ZM9.414,40l5.95-5.95L13.95,32.636,8,38.586l-5.95-5.95L.636,34.05,6.586,40,.636,45.95,2.05,47.364,8,41.414l5.95,5.95,1.414-1.414Z"/></g><g transform="translate(266 1741)"><path class="a" d="M8,16A8,8,0,1,0,0,8,8,8,0,0,0,8,16Zm0-2A6,6,0,1,0,2,8,6,6,0,0,0,8,14ZM41.414,8l5.95-5.95L45.95.636,40,6.586,34.05.636,32.636,2.05,38.586,8l-5.95,5.95,1.414,1.414L40,9.414l5.95,5.95,1.414-1.414ZM40,48a8,8,0,1,0-8-8A8,8,0,0,0,40,48Zm0-2a6,6,0,1,0-6-6A6,6,0,0,0,40,46ZM9.414,40l5.95-5.95L13.95,32.636,8,38.586l-5.95-5.95L.636,34.05,6.586,40,.636,45.95,2.05,47.364,8,41.414l5.95,5.95,1.414-1.414Z"/></g><g transform="translate(348 1741)"><path class="a" d="M8,16A8,8,0,1,0,0,8,8,8,0,0,0,8,16Zm0-2A6,6,0,1,0,2,8,6,6,0,0,0,8,14ZM41.414,8l5.95-5.95L45.95.636,40,6.586,34.05.636,32.636,2.05,38.586,8l-5.95,5.95,1.414,1.414L40,9.414l5.95,5.95,1.414-1.414ZM40,48a8,8,0,1,0-8-8A8,8,0,0,0,40,48Zm0-2a6,6,0,1,0-6-6A6,6,0,0,0,40,46ZM9.414,40l5.95-5.95L13.95,32.636,8,38.586l-5.95-5.95L.636,34.05,6.586,40,.636,45.95,2.05,47.364,8,41.414l5.95,5.95,1.414-1.414Z"/></g><g transform="translate(430 1741)"><path class="a" d="M8,16A8,8,0,1,0,0,8,8,8,0,0,0,8,16Zm0-2A6,6,0,1,0,2,8,6,6,0,0,0,8,14ZM41.414,8l5.95-5.95L45.95.636,40,6.586,34.05.636,32.636,2.05,38.586,8l-5.95,5.95,1.414,1.414L40,9.414l5.95,5.95,1.414-1.414ZM40,48a8,8,0,1,0-8-8A8,8,0,0,0,40,48Zm0-2a6,6,0,1,0-6-6A6,6,0,0,0,40,46ZM9.414,40l5.95-5.95L13.95,32.636,8,38.586l-5.95-5.95L.636,34.05,6.586,40,.636,45.95,2.05,47.364,8,41.414l5.95,5.95,1.414-1.414Z"/></g><g transform="translate(266 1829)"><path class="a" d="M8,16A8,8,0,1,0,0,8,8,8,0,0,0,8,16Zm0-2A6,6,0,1,0,2,8,6,6,0,0,0,8,14ZM41.414,8l5.95-5.95L45.95.636,40,6.586,34.05.636,32.636,2.05,38.586,8l-5.95,5.95,1.414,1.414L40,9.414l5.95,5.95,1.414-1.414ZM40,48a8,8,0,1,0-8-8A8,8,0,0,0,40,48Zm0-2a6,6,0,1,0-6-6A6,6,0,0,0,40,46ZM9.414,40l5.95-5.95L13.95,32.636,8,38.586l-5.95-5.95L.636,34.05,6.586,40,.636,45.95,2.05,47.364,8,41.414l5.95,5.95,1.414-1.414Z"/></g><g transform="translate(348 1829)"><path class="a" d="M8,16A8,8,0,1,0,0,8,8,8,0,0,0,8,16Zm0-2A6,6,0,1,0,2,8,6,6,0,0,0,8,14ZM41.414,8l5.95-5.95L45.95.636,40,6.586,34.05.636,32.636,2.05,38.586,8l-5.95,5.95,1.414,1.414L40,9.414l5.95,5.95,1.414-1.414ZM40,48a8,8,0,1,0-8-8A8,8,0,0,0,40,48Zm0-2a6,6,0,1,0-6-6A6,6,0,0,0,40,46ZM9.414,40l5.95-5.95L13.95,32.636,8,38.586l-5.95-5.95L.636,34.05,6.586,40,.636,45.95,2.05,47.364,8,41.414l5.95,5.95,1.414-1.414Z"/></g><g transform="translate(430 1829)"><path class="a" d="M8,16A8,8,0,1,0,0,8,8,8,0,0,0,8,16Zm0-2A6,6,0,1,0,2,8,6,6,0,0,0,8,14ZM41.414,8l5.95-5.95L45.95.636,40,6.586,34.05.636,32.636,2.05,38.586,8l-5.95,5.95,1.414,1.414L40,9.414l5.95,5.95,1.414-1.414ZM40,48a8,8,0,1,0-8-8A8,8,0,0,0,40,48Zm0-2a6,6,0,1,0-6-6A6,6,0,0,0,40,46ZM9.414,40l5.95-5.95L13.95,32.636,8,38.586l-5.95-5.95L.636,34.05,6.586,40,.636,45.95,2.05,47.364,8,41.414l5.95,5.95,1.414-1.414Z"/></g></g></svg>